<?xml version="1.0" encoding="UTF-8"?>
<svg xmlns="http://www.w3.org/2000/svg" xmlns:xlink="http://www.w3.org/1999/xlink" width="1210px" height="500px" viewBox="0 0 1212 500" version="1.1">
<g id="surface1">
<path style=" stroke:none;fill-rule:nonzero;fill:rgb(0%,52.941176%,25.490196%);fill-opacity:1;" d="M 535.378906 64.730469 L 541.730469 64.730469 C 545.660156 81.066406 555.640625 99.214844 574.394531 99.214844 C 584.675781 99.214844 593.449219 94.375 593.449219 81.972656 C 593.449219 60.496094 535.984375 68.058594 535.984375 33.574219 C 536.285156 12.097656 552.316406 0 571.066406 0 C 587.398438 0 592.539062 7.863281 596.773438 7.863281 C 599.496094 7.863281 600.707031 4.234375 602.824219 1.816406 L 609.175781 1.816406 L 609.175781 37.507812 L 603.125 37.507812 C 598.589844 21.171875 589.214844 7.257812 573.488281 7.257812 C 564.414062 7.257812 556.246094 12.402344 556.246094 22.382812 C 556.246094 45.675781 614.621094 33.878906 614.621094 72.898438 C 614.621094 94.980469 594.65625 106.472656 577.722656 106.472656 C 559.269531 106.472656 552.617188 98.910156 547.777344 98.910156 C 545.054688 98.910156 542.636719 102.84375 541.425781 104.960938 L 535.378906 104.960938 Z M 535.378906 64.730469 "/>
<path style=" stroke:none;fill-rule:nonzero;fill:rgb(3.529412%,18.823529%,29.803922%);fill-opacity:1;" d="M 695.070312 69.269531 C 695.070312 90.742188 679.042969 106.171875 659.078125 106.171875 C 639.117188 106.171875 623.089844 91.046875 623.089844 69.269531 C 623.089844 47.488281 639.117188 32.367188 659.078125 32.367188 C 678.738281 32.367188 695.070312 47.488281 695.070312 69.269531 Z M 678.738281 69.269531 C 678.738281 44.765625 670.875 37.808594 658.777344 37.808594 C 646.679688 37.808594 638.816406 45.070312 638.816406 69.269531 C 638.816406 93.464844 646.679688 100.726562 658.777344 100.726562 C 670.574219 100.726562 678.738281 93.464844 678.738281 69.269531 Z M 678.738281 69.269531 "/>
<path style=" stroke:none;fill-rule:nonzero;fill:rgb(3.529412%,18.823529%,29.803922%);fill-opacity:1;" d="M 744.976562 105.261719 L 744.976562 91.347656 L 744.671875 91.347656 C 739.53125 100.421875 732.273438 106.171875 721.988281 106.171875 C 708.683594 106.171875 699.910156 97.097656 699.910156 79.25 L 699.910156 45.675781 C 699.910156 40.835938 697.1875 39.324219 689.628906 39.324219 L 689.628906 34.484375 L 714.125 34.484375 L 714.125 85.90625 C 714.125 94.375 717.453125 100.421875 725.316406 100.421875 C 737.71875 100.421875 742.859375 89.230469 744.070312 79.25 L 744.070312 45.976562 C 744.070312 41.136719 741.347656 39.625 732.574219 39.625 L 732.574219 34.484375 L 758.285156 34.484375 L 758.285156 93.164062 C 758.285156 98.003906 761.003906 99.515625 768.566406 99.515625 L 768.566406 104.054688 Z M 744.976562 105.261719 "/>
<path style=" stroke:none;fill-rule:nonzero;fill:rgb(3.529412%,18.823529%,29.803922%);fill-opacity:1;" d="M 787.621094 11.191406 L 787.621094 34.484375 L 808.492188 34.484375 L 808.492188 39.625 L 787.621094 39.625 L 787.621094 93.464844 C 787.621094 99.820312 791.554688 101.027344 795.484375 101.027344 C 801.535156 101.027344 806.375 97.097656 806.375 84.996094 L 806.375 81.667969 L 810.304688 81.667969 L 810.304688 84.089844 C 810.304688 97.398438 806.375 105.566406 791.554688 105.566406 C 781.269531 105.566406 773.105469 101.9375 773.105469 87.71875 L 773.105469 39.324219 L 762.214844 39.324219 L 762.214844 34.484375 C 776.128906 33.273438 777.941406 29.339844 781.875 11.191406 C 782.175781 11.191406 787.621094 11.191406 787.621094 11.191406 Z M 787.621094 11.191406 "/>
<path style=" stroke:none;fill-rule:nonzero;fill:rgb(3.529412%,18.823529%,29.803922%);fill-opacity:1;" d="M 880.171875 92.863281 C 880.171875 97.699219 882.894531 99.214844 890.453125 99.214844 L 890.453125 104.054688 L 865.957031 104.054688 L 865.957031 54.445312 C 865.957031 41.742188 859.605469 38.414062 853.859375 38.414062 C 842.667969 38.414062 836.011719 52.328125 836.011719 63.519531 L 836.011719 92.558594 C 836.011719 97.398438 838.734375 98.910156 847.507812 98.910156 L 847.507812 103.75 L 811.515625 103.75 L 811.515625 98.609375 C 819.378906 98.609375 821.796875 97.097656 821.796875 92.257812 L 821.796875 13.914062 C 821.796875 9.074219 819.074219 7.5625 811.515625 7.5625 L 811.515625 2.722656 L 836.011719 1.816406 L 836.011719 47.488281 L 836.316406 47.488281 C 840.246094 38.414062 847.507812 32.667969 857.789062 32.667969 C 868.074219 32.667969 879.867188 38.414062 879.867188 59.890625 L 879.867188 92.863281 Z M 880.171875 92.863281 "/>
<path style=" stroke:none;fill-rule:nonzero;fill:rgb(3.529412%,18.823529%,29.803922%);fill-opacity:1;" d="M 901.34375 68.664062 C 901.34375 88.929688 910.113281 100.726562 922.816406 100.726562 C 932.796875 100.726562 939.753906 94.675781 945.199219 87.113281 L 948.828125 89.535156 C 942.171875 99.515625 934.007812 105.867188 917.976562 105.867188 C 899.527344 105.867188 885.3125 88.929688 885.3125 68.964844 C 885.3125 49.304688 899.832031 32.0625 917.976562 32.0625 C 935.519531 32.0625 949.433594 44.464844 949.433594 68.359375 C 949.734375 68.664062 901.34375 68.664062 901.34375 68.664062 Z M 934.007812 63.519531 C 934.007812 52.632812 931.890625 37.507812 917.070312 37.507812 C 902.550781 37.507812 900.738281 53.238281 900.738281 63.519531 Z M 934.007812 63.519531 "/>
<path style=" stroke:none;fill-rule:nonzero;fill:rgb(3.529412%,18.823529%,29.803922%);fill-opacity:1;" d="M 987.539062 104.054688 L 947.917969 104.054688 L 947.917969 98.910156 C 956.691406 98.910156 959.109375 97.398438 959.109375 92.558594 L 959.109375 45.675781 C 959.109375 40.835938 956.386719 39.324219 948.222656 39.324219 L 948.222656 34.484375 L 971.8125 33.574219 L 971.8125 53.839844 L 972.117188 53.839844 C 975.441406 41.742188 979.980469 32.667969 992.378906 32.667969 C 1000.242188 32.667969 1003.875 38.71875 1003.875 42.953125 C 1003.875 46.882812 1000.546875 50.816406 996.007812 50.816406 C 991.171875 50.816406 988.75 48.09375 988.75 44.164062 C 988.75 41.742188 989.960938 39.625 992.078125 38.113281 C 991.773438 38.113281 990.867188 37.808594 989.960938 37.808594 C 979.980469 37.808594 972.417969 56.261719 972.417969 84.089844 C 972.417969 96.492188 973.324219 99.214844 986.332031 99.214844 L 986.332031 103.75 L 987.539062 103.75 Z M 987.539062 104.054688 "/>
<path style=" stroke:none;fill-rule:nonzero;fill:rgb(3.529412%,18.823529%,29.803922%);fill-opacity:1;" d="M 1031.09375 33.273438 L 1031.09375 47.1875 L 1031.394531 47.1875 C 1036.539062 38.113281 1043.796875 32.367188 1054.078125 32.367188 C 1064.363281 32.367188 1076.160156 38.113281 1076.160156 59.589844 L 1076.160156 92.863281 C 1076.160156 97.699219 1078.878906 99.214844 1086.441406 99.214844 L 1086.441406 104.054688 L 1062.246094 104.054688 L 1062.246094 54.445312 C 1062.246094 41.742188 1055.894531 38.414062 1050.148438 38.414062 C 1038.957031 38.414062 1032.304688 52.328125 1032.304688 63.519531 L 1032.304688 92.558594 C 1032.304688 97.398438 1035.027344 98.910156 1043.796875 98.910156 L 1043.796875 103.75 L 1007.804688 103.75 L 1007.804688 98.609375 C 1015.667969 98.609375 1018.089844 97.097656 1018.089844 92.257812 L 1018.089844 45.675781 C 1018.089844 40.835938 1015.367188 39.324219 1007.804688 39.324219 L 1007.804688 34.484375 Z M 1031.09375 33.273438 "/>
<path style=" stroke:none;fill-rule:nonzero;fill:rgb(0%,52.941176%,25.490196%);fill-opacity:1;" d="M 617.945312 170.296875 L 611.898438 170.296875 C 604.335938 149.121094 595.867188 138.234375 578.628906 138.234375 C 560.179688 138.234375 552.316406 155.171875 552.316406 184.210938 C 552.316406 214.457031 562.296875 230.1875 582.558594 230.1875 C 602.21875 230.1875 613.410156 217.785156 614.621094 195.402344 L 620.972656 195.402344 C 620.972656 221.414062 606.152344 237.445312 578.929688 237.445312 C 543.847656 237.445312 524.488281 212.945312 524.488281 184.816406 C 524.488281 156.683594 548.382812 132.183594 576.8125 132.183594 C 588.003906 132.183594 597.683594 136.117188 605.847656 140.957031 L 611.898438 134.90625 L 617.945312 134.90625 Z M 617.945312 170.296875 "/>
<path style=" stroke:none;fill-rule:nonzero;fill:rgb(3.529412%,18.823529%,29.803922%);fill-opacity:1;" d="M 695.375 218.390625 C 695.375 228.070312 690.535156 236.238281 680.25 236.238281 C 671.480469 236.238281 669.363281 230.488281 668.152344 222.929688 L 667.851562 222.929688 C 663.917969 234.121094 655.148438 237.445312 643.957031 237.445312 C 633.675781 237.445312 623.089844 231.699219 623.089844 220.207031 C 623.089844 202.964844 654.242188 196.308594 666.945312 191.773438 L 666.945312 177.859375 C 666.945312 170.296875 657.265625 168.785156 651.820312 168.785156 C 646.679688 168.785156 642.144531 169.691406 637.910156 172.414062 C 641.839844 173.320312 644.261719 176.042969 644.261719 180.277344 C 644.261719 184.816406 640.628906 189.050781 635.488281 189.050781 C 630.347656 189.050781 626.71875 185.117188 626.71875 180.277344 C 626.71875 171.203125 638.210938 163.339844 651.820312 163.339844 C 670.875 163.339844 680.554688 168.179688 680.554688 183.605469 L 680.554688 219.601562 C 680.554688 227.164062 682.066406 228.070312 685.394531 228.070312 C 690.230469 228.070312 691.441406 221.414062 691.441406 217.785156 L 695.375 217.785156 Z M 666.945312 196.613281 C 656.660156 199.03125 638.816406 206.59375 638.816406 219.296875 C 638.816406 225.953125 642.445312 230.792969 649.097656 230.792969 C 658.171875 230.792969 666.640625 222.019531 666.640625 209.316406 L 666.640625 196.613281 Z M 666.945312 196.613281 "/>
<path style=" stroke:none;fill-rule:nonzero;fill:rgb(3.529412%,18.823529%,29.803922%);fill-opacity:1;" d="M 695.070312 235.328125 L 695.070312 230.1875 C 703.84375 230.1875 706.261719 228.675781 706.261719 223.835938 L 706.261719 145.492188 C 706.261719 140.652344 703.539062 139.140625 695.070312 139.140625 L 695.070312 134 L 720.175781 133.089844 L 720.175781 224.136719 C 720.175781 228.976562 722.898438 230.488281 731.367188 230.488281 L 731.367188 235.933594 L 695.070312 235.933594 Z M 695.070312 235.328125 "/>
<path style=" stroke:none;fill-rule:nonzero;fill:rgb(3.529412%,18.823529%,29.803922%);fill-opacity:1;" d="M 731.667969 235.328125 L 731.667969 230.1875 C 740.4375 230.1875 742.859375 228.675781 742.859375 223.835938 L 742.859375 176.648438 C 742.859375 171.808594 740.136719 170.296875 731.667969 170.296875 L 731.667969 165.152344 L 756.769531 164.246094 L 756.769531 223.835938 C 756.769531 228.675781 759.492188 230.1875 767.960938 230.1875 L 767.960938 235.328125 C 768.265625 235.328125 731.667969 235.328125 731.667969 235.328125 Z M 757.074219 142.46875 C 757.074219 147.308594 753.140625 150.9375 748.605469 150.9375 C 744.070312 150.9375 740.136719 147.308594 740.136719 142.46875 C 740.136719 137.628906 744.070312 134 748.605469 134 C 753.140625 134 757.074219 137.628906 757.074219 142.46875 Z M 757.074219 142.46875 "/>
<path style=" stroke:none;fill-rule:nonzero;fill:rgb(3.529412%,18.823529%,29.803922%);fill-opacity:1;" d="M 813.027344 170.597656 L 795.484375 170.597656 L 795.484375 224.136719 C 795.484375 228.976562 798.207031 230.488281 810.304688 230.488281 L 810.304688 235.933594 L 768.265625 235.933594 L 768.265625 230.792969 C 779.152344 230.792969 781.574219 229.28125 781.574219 224.441406 L 781.574219 170.597656 L 768.265625 170.597656 L 768.265625 165.457031 L 781.574219 165.457031 L 781.574219 157.59375 C 781.574219 142.46875 793.066406 133.089844 807.582031 133.089844 C 819.074219 133.089844 823.914062 137.929688 823.914062 143.980469 C 823.914062 149.121094 820.285156 152.449219 815.445312 152.449219 C 811.515625 152.449219 807.886719 150.03125 807.886719 145.796875 C 807.886719 143.375 809.09375 140.652344 810.609375 139.140625 C 809.398438 138.839844 808.1875 138.839844 806.675781 138.839844 C 798.207031 138.839844 795.183594 144.585938 795.183594 150.03125 L 795.183594 166.363281 L 812.726562 166.363281 L 812.726562 171.203125 L 813.027344 171.203125 Z M 813.027344 170.597656 "/>
<path style=" stroke:none;fill-rule:nonzero;fill:rgb(3.529412%,18.823529%,29.803922%);fill-opacity:1;" d="M 882.894531 200.542969 C 882.894531 222.019531 866.863281 237.445312 846.902344 237.445312 C 826.941406 237.445312 810.910156 222.324219 810.910156 200.542969 C 810.910156 178.765625 826.941406 163.640625 846.902344 163.640625 C 866.863281 163.945312 882.894531 179.070312 882.894531 200.542969 Z M 866.863281 200.542969 C 866.863281 176.042969 859 169.085938 846.902344 169.085938 C 834.804688 169.085938 826.941406 176.347656 826.941406 200.542969 C 826.941406 225.046875 834.804688 232.003906 846.902344 232.003906 C 859 232.304688 866.863281 225.046875 866.863281 200.542969 Z M 866.863281 200.542969 "/>
<path style=" stroke:none;fill-rule:nonzero;fill:rgb(3.529412%,18.823529%,29.803922%);fill-opacity:1;" d="M 919.1875 235.328125 L 879.867188 235.328125 L 879.867188 230.1875 C 888.640625 230.1875 891.058594 228.675781 891.058594 223.835938 L 891.058594 176.648438 C 891.058594 171.808594 888.335938 170.296875 880.171875 170.296875 L 880.171875 165.152344 L 903.761719 164.246094 L 903.761719 184.511719 L 904.066406 184.511719 C 907.390625 172.414062 911.929688 163.339844 924.328125 163.339844 C 932.191406 163.339844 935.820312 169.390625 935.820312 173.625 C 935.820312 177.554688 932.496094 181.488281 927.957031 181.488281 C 923.421875 181.488281 920.699219 178.765625 920.699219 174.832031 C 920.699219 172.414062 921.910156 170.296875 924.027344 168.785156 C 923.722656 168.785156 922.816406 168.480469 921.910156 168.480469 C 911.929688 168.480469 904.367188 186.933594 904.367188 214.761719 C 904.367188 227.164062 905.273438 229.886719 918.28125 229.886719 L 918.28125 235.027344 Z M 919.1875 235.328125 "/>
<path style=" stroke:none;fill-rule:nonzero;fill:rgb(3.529412%,18.823529%,29.803922%);fill-opacity:1;" d="M 963.648438 164.851562 L 963.648438 178.765625 L 963.949219 178.765625 C 969.089844 169.691406 976.351562 163.945312 986.632812 163.945312 C 996.917969 163.945312 1008.710938 169.691406 1008.710938 191.167969 L 1008.710938 224.441406 C 1008.710938 229.28125 1011.433594 230.792969 1018.996094 230.792969 L 1018.996094 235.933594 L 994.496094 235.933594 L 994.496094 186.027344 C 994.496094 173.320312 988.144531 169.992188 982.398438 169.992188 C 971.207031 169.992188 964.554688 183.90625 964.554688 195.101562 L 964.554688 224.136719 C 964.554688 228.976562 967.277344 230.488281 976.046875 230.488281 L 976.046875 235.933594 L 940.054688 235.933594 L 940.054688 230.792969 C 947.917969 230.792969 950.339844 229.28125 950.339844 224.441406 L 950.339844 176.648438 C 950.339844 171.808594 947.617188 170.296875 940.054688 170.296875 L 940.054688 165.152344 Z M 963.648438 164.851562 "/>
<path style=" stroke:none;fill-rule:nonzero;fill:rgb(3.529412%,18.823529%,29.803922%);fill-opacity:1;" d="M 1019.296875 235.328125 L 1019.296875 230.1875 C 1028.070312 230.1875 1030.488281 228.675781 1030.488281 223.835938 L 1030.488281 176.648438 C 1030.488281 171.808594 1027.765625 170.296875 1019.296875 170.296875 L 1019.296875 165.152344 L 1044.402344 164.246094 L 1044.402344 223.835938 C 1044.402344 228.675781 1047.125 230.1875 1055.59375 230.1875 L 1055.59375 235.328125 C 1055.59375 235.328125 1019.296875 235.328125 1019.296875 235.328125 Z M 1044.097656 142.46875 C 1044.097656 147.308594 1040.167969 150.9375 1035.628906 150.9375 C 1031.09375 150.9375 1027.160156 147.308594 1027.160156 142.46875 C 1027.160156 137.628906 1031.09375 134 1035.628906 134 C 1040.46875 134 1044.097656 137.628906 1044.097656 142.46875 Z M 1044.097656 142.46875 "/>
<path style=" stroke:none;fill-rule:nonzero;fill:rgb(3.529412%,18.823529%,29.803922%);fill-opacity:1;" d="M 1129.390625 218.390625 C 1129.390625 228.070312 1124.550781 236.238281 1114.265625 236.238281 C 1105.496094 236.238281 1103.378906 230.488281 1102.167969 222.929688 L 1101.867188 222.929688 C 1097.933594 234.121094 1089.164062 237.445312 1077.972656 237.445312 C 1067.691406 237.445312 1057.105469 231.699219 1057.105469 220.207031 C 1057.105469 202.964844 1088.257812 196.308594 1100.960938 191.773438 L 1100.960938 177.859375 C 1100.960938 170.296875 1091.28125 168.785156 1085.835938 168.785156 C 1080.695312 168.785156 1076.160156 169.691406 1071.925781 172.414062 C 1075.855469 173.320312 1078.277344 176.042969 1078.277344 180.277344 C 1078.277344 184.816406 1074.644531 189.050781 1069.503906 189.050781 C 1064.363281 189.050781 1060.734375 185.117188 1060.734375 180.277344 C 1060.734375 171.203125 1072.226562 163.339844 1085.835938 163.339844 C 1104.890625 163.339844 1114.570312 168.179688 1114.570312 183.605469 L 1114.570312 219.601562 C 1114.570312 227.164062 1116.082031 228.070312 1119.410156 228.070312 C 1124.25 228.070312 1125.457031 221.414062 1125.457031 217.785156 L 1129.390625 217.785156 Z M 1100.65625 196.613281 C 1090.375 199.03125 1072.527344 206.59375 1072.527344 219.296875 C 1072.527344 225.953125 1076.160156 230.792969 1082.8125 230.792969 C 1091.886719 230.792969 1100.355469 222.019531 1100.355469 209.316406 L 1100.355469 196.613281 Z M 1100.65625 196.613281 "/>
<path style=" stroke:none;fill-rule:nonzero;fill:rgb(0%,52.941176%,25.490196%);fill-opacity:1;" d="M 576.207031 262.554688 C 604.335938 262.554688 628.53125 287.054688 628.53125 315.183594 C 628.53125 343.316406 604.640625 367.816406 576.207031 367.816406 C 547.777344 367.816406 524.1875 343.921875 524.1875 315.488281 C 524.1875 287.054688 548.382812 262.554688 576.207031 262.554688 Z M 576.207031 361.765625 C 593.75 361.765625 600.707031 344.222656 600.707031 315.789062 C 600.707031 287.355469 594.054688 269.8125 576.207031 269.8125 C 558.667969 269.8125 551.710938 287.355469 551.710938 315.789062 C 551.710938 344.222656 558.96875 361.765625 576.207031 361.765625 Z M 576.207031 361.765625 "/>
<path style=" stroke:none;fill-rule:nonzero;fill:rgb(3.529412%,18.823529%,29.803922%);fill-opacity:1;" d="M 670.875 366.910156 L 631.558594 366.910156 L 631.558594 361.765625 C 640.328125 361.765625 642.746094 360.253906 642.746094 355.414062 L 642.746094 308.226562 C 642.746094 303.386719 640.027344 301.875 631.859375 301.875 L 631.859375 296.734375 L 655.449219 295.824219 L 655.449219 316.09375 L 655.753906 316.09375 C 659.078125 303.992188 663.617188 294.917969 676.015625 294.917969 C 683.882812 294.917969 687.511719 300.96875 687.511719 305.203125 C 687.511719 309.136719 684.183594 313.066406 679.648438 313.066406 C 674.808594 313.066406 672.386719 310.34375 672.386719 306.414062 C 672.386719 303.992188 673.597656 301.875 675.714844 300.363281 C 675.414062 300.363281 674.503906 300.058594 673.597656 300.058594 C 663.617188 300.058594 656.054688 318.511719 656.054688 346.339844 C 656.054688 358.742188 656.960938 361.464844 669.96875 361.464844 L 669.96875 366.605469 Z M 670.875 366.910156 "/>
<path style=" stroke:none;fill-rule:nonzero;fill:rgb(3.529412%,18.823529%,29.803922%);fill-opacity:1;" d="M 717.753906 273.746094 L 717.753906 297.035156 L 738.625 297.035156 L 738.625 302.179688 L 717.753906 302.179688 L 717.753906 355.71875 C 717.753906 362.070312 721.6875 363.277344 725.617188 363.277344 C 731.667969 363.277344 736.507812 359.347656 736.507812 347.246094 L 736.507812 343.921875 L 740.4375 343.921875 L 740.4375 346.339844 C 740.4375 359.648438 736.507812 367.816406 721.6875 367.816406 C 711.402344 367.816406 703.238281 364.1875 703.238281 349.96875 L 703.238281 301.574219 L 692.347656 301.574219 L 692.347656 296.429688 C 706.261719 295.222656 708.078125 291.289062 712.007812 273.140625 L 717.753906 273.140625 Z M 717.753906 273.746094 "/>
<path style=" stroke:none;fill-rule:nonzero;fill:rgb(3.529412%,18.823529%,29.803922%);fill-opacity:1;" d="M 811.210938 355.414062 C 811.210938 360.253906 813.933594 361.765625 821.496094 361.765625 L 821.496094 366.910156 L 796.996094 366.910156 L 796.996094 317 C 796.996094 304.296875 790.644531 300.96875 784.898438 300.96875 C 773.707031 300.96875 767.054688 314.882812 767.054688 326.074219 L 767.054688 355.113281 C 767.054688 359.953125 769.777344 361.464844 778.546875 361.464844 L 778.546875 366.605469 L 742.554688 366.605469 L 742.554688 361.464844 C 750.417969 361.464844 752.839844 359.953125 752.839844 355.113281 L 752.839844 276.46875 C 752.839844 271.628906 750.117188 270.113281 742.554688 270.113281 L 742.554688 264.972656 L 767.054688 264.066406 L 767.054688 309.738281 L 767.355469 309.738281 C 771.289062 300.664062 778.546875 294.917969 788.832031 294.917969 C 799.113281 294.917969 810.910156 300.664062 810.910156 322.140625 L 810.910156 355.414062 Z M 811.210938 355.414062 "/>
<path style=" stroke:none;fill-rule:nonzero;fill:rgb(3.529412%,18.823529%,29.803922%);fill-opacity:1;" d="M 891.363281 331.820312 C 891.363281 353.296875 875.332031 368.722656 855.371094 368.722656 C 835.410156 368.722656 819.378906 353.597656 819.378906 331.820312 C 819.378906 310.34375 835.410156 294.917969 855.371094 294.917969 C 875.332031 294.917969 891.363281 310.34375 891.363281 331.820312 Z M 875.332031 331.820312 C 875.332031 307.320312 867.46875 300.363281 855.371094 300.363281 C 843.273438 300.363281 835.410156 307.621094 835.410156 331.820312 C 835.410156 356.019531 843.273438 363.277344 855.371094 363.277344 C 867.46875 363.277344 875.332031 356.320312 875.332031 331.820312 Z M 875.332031 331.820312 "/>
<path style=" stroke:none;fill-rule:nonzero;fill:rgb(3.529412%,18.823529%,29.803922%);fill-opacity:1;" d="M 911.324219 310.648438 C 915.253906 302.179688 920.398438 294.917969 932.496094 294.917969 C 950.035156 294.917969 963.648438 312.460938 963.648438 330.914062 C 963.648438 350.574219 950.339844 368.421875 932.496094 368.421875 C 922.210938 368.421875 916.765625 364.792969 912.53125 356.320312 L 912.230469 356.320312 L 912.230469 382.335938 C 912.230469 387.175781 914.953125 388.6875 925.539062 388.6875 L 925.539062 393.828125 L 886.21875 393.828125 L 886.21875 388.6875 C 895.292969 388.6875 898.316406 387.175781 898.316406 382.335938 L 898.316406 308.832031 C 898.316406 303.992188 895.597656 302.480469 887.128906 302.480469 L 887.128906 297.339844 L 911.019531 296.429688 L 911.019531 310.34375 Z M 912.53125 332.125 L 912.53125 336.054688 C 912.53125 358.742188 924.632812 363.277344 929.46875 363.277344 C 943.382812 363.277344 948.523438 354.203125 948.523438 332.125 C 948.523438 313.371094 943.382812 300.058594 930.679688 300.058594 C 919.1875 300.363281 912.53125 313.371094 912.53125 332.125 Z M 912.53125 332.125 "/>
<path style=" stroke:none;fill-rule:nonzero;fill:rgb(3.529412%,18.823529%,29.803922%);fill-opacity:1;" d="M 984.820312 331.519531 C 984.820312 351.785156 993.589844 363.582031 1006.292969 363.582031 C 1016.273438 363.582031 1023.230469 357.53125 1028.675781 349.96875 L 1032.304688 352.390625 C 1025.648438 362.371094 1017.484375 368.722656 1001.453125 368.722656 C 983.003906 368.722656 968.789062 351.785156 968.789062 331.820312 C 968.789062 312.160156 983.304688 294.917969 1001.453125 294.917969 C 1018.996094 294.917969 1032.910156 307.320312 1032.910156 331.214844 Z M 1017.484375 326.074219 C 1017.484375 315.183594 1015.367188 300.058594 1000.546875 300.058594 C 986.027344 300.058594 984.214844 315.789062 984.214844 326.074219 Z M 1017.484375 326.074219 "/>
<path style=" stroke:none;fill-rule:nonzero;fill:rgb(3.529412%,18.823529%,29.803922%);fill-opacity:1;" d="M 1089.464844 276.769531 C 1089.464844 271.929688 1086.746094 270.417969 1078.277344 270.417969 L 1078.277344 265.273438 L 1103.378906 264.367188 L 1103.378906 356.320312 C 1103.378906 361.160156 1106.101562 362.675781 1113.359375 362.675781 L 1113.359375 366.605469 L 1090.070312 367.511719 L 1090.070312 353.597656 L 1089.769531 353.597656 C 1085.835938 362.675781 1078.277344 368.421875 1067.085938 368.421875 C 1051.960938 368.421875 1037.445312 351.480469 1037.445312 331.519531 C 1037.445312 311.855469 1051.960938 294.617188 1070.714844 294.617188 C 1078.578125 294.617188 1084.628906 297.941406 1089.164062 306.109375 L 1089.464844 306.109375 Z M 1090.375 331.519531 C 1090.375 311.253906 1083.71875 300.363281 1072.527344 300.363281 C 1059.828125 300.363281 1054.683594 313.066406 1054.683594 331.519531 C 1054.683594 353.597656 1061.035156 363.582031 1071.925781 363.582031 C 1082.8125 363.277344 1090.375 351.480469 1090.375 331.519531 Z M 1090.375 331.519531 "/>
<path style=" stroke:none;fill-rule:nonzero;fill:rgb(3.529412%,18.823529%,29.803922%);fill-opacity:1;" d="M 1111.847656 366.910156 L 1111.847656 361.765625 C 1120.617188 361.765625 1123.039062 360.253906 1123.039062 355.414062 L 1123.039062 308.226562 C 1123.039062 303.386719 1120.316406 301.875 1111.847656 301.875 L 1111.847656 296.734375 L 1136.949219 295.824219 L 1136.949219 355.414062 C 1136.949219 360.253906 1139.671875 361.765625 1148.140625 361.765625 L 1148.140625 366.910156 C 1148.140625 366.910156 1111.847656 366.910156 1111.847656 366.910156 Z M 1136.648438 273.746094 C 1136.648438 278.585938 1132.71875 282.214844 1128.179688 282.214844 C 1123.644531 282.214844 1119.710938 278.585938 1119.710938 273.746094 C 1119.710938 268.90625 1123.644531 265.273438 1128.179688 265.273438 C 1132.71875 265.578125 1136.648438 268.90625 1136.648438 273.746094 Z M 1136.648438 273.746094 "/>
<path style=" stroke:none;fill-rule:nonzero;fill:rgb(3.529412%,18.823529%,29.803922%);fill-opacity:1;" d="M 1211.355469 351.785156 C 1205.304688 362.070312 1196.230469 368.722656 1182.320312 368.722656 C 1162.054688 368.722656 1146.328125 352.996094 1146.328125 331.820312 C 1146.328125 310.648438 1165.078125 294.917969 1185.039062 294.917969 C 1197.441406 294.917969 1209.839844 300.96875 1209.839844 311.855469 C 1209.839844 317 1206.210938 321.535156 1200.769531 321.535156 C 1194.71875 321.535156 1191.695312 317.90625 1191.695312 313.671875 C 1191.695312 309.136719 1194.417969 306.414062 1199.253906 306.414062 C 1200.464844 306.414062 1201.371094 306.414062 1202.582031 306.714844 C 1200.164062 302.179688 1194.71875 300.363281 1186.25 300.363281 C 1171.734375 300.363281 1162.960938 310.648438 1162.960938 330.308594 C 1162.960938 349.0625 1169.617188 363.582031 1185.644531 363.582031 C 1196.535156 363.582031 1203.1875 357.53125 1208.328125 349.96875 Z M 1211.355469 351.785156 "/>
<path style=" stroke:none;fill-rule:nonzero;fill:rgb(0%,52.941176%,25.490196%);fill-opacity:1;" d="M 552.316406 498.183594 L 552.316406 492.136719 C 563.503906 492.136719 566.832031 489.714844 566.832031 482.152344 L 566.832031 411.675781 C 566.832031 404.113281 563.203125 401.695312 552.316406 401.695312 L 552.316406 395.644531 L 606.152344 395.644531 L 606.152344 401.695312 C 594.960938 401.695312 591.632812 404.113281 591.632812 411.675781 L 591.632812 482.457031 C 591.632812 490.019531 595.261719 492.4375 606.152344 492.4375 L 606.152344 498.488281 Z M 552.316406 498.183594 "/>
<path style=" stroke:none;fill-rule:nonzero;fill:rgb(3.529412%,18.823529%,29.803922%);fill-opacity:1;" d="M 634.582031 427.40625 L 634.582031 441.320312 L 634.882812 441.320312 C 640.027344 432.246094 647.285156 426.496094 657.566406 426.496094 C 667.851562 426.496094 679.648438 432.246094 679.648438 453.71875 L 679.648438 486.992188 C 679.648438 491.832031 682.367188 493.34375 689.929688 493.34375 L 689.929688 498.488281 L 665.429688 498.488281 L 665.429688 448.878906 C 665.429688 436.175781 659.078125 432.847656 653.332031 432.847656 C 642.144531 432.847656 635.488281 446.761719 635.488281 457.957031 L 635.488281 486.992188 C 635.488281 491.832031 638.210938 493.34375 646.980469 493.34375 L 646.980469 498.488281 L 611.59375 498.488281 L 611.59375 493.34375 C 619.460938 493.34375 621.878906 491.832031 621.878906 486.992188 L 621.878906 439.503906 C 621.878906 434.664062 619.15625 433.152344 611.59375 433.152344 L 611.59375 428.007812 Z M 634.582031 427.40625 "/>
<path style=" stroke:none;fill-rule:nonzero;fill:rgb(3.529412%,18.823529%,29.803922%);fill-opacity:1;" d="M 692.953125 498.789062 L 692.953125 473.078125 L 696.886719 473.078125 C 700.214844 485.785156 709.589844 494.554688 722.898438 494.554688 C 729.550781 494.554688 738.925781 490.019531 738.925781 482.152344 C 738.925781 461.28125 693.257812 473.382812 693.257812 446.460938 C 693.257812 433.152344 704.75 425.589844 718.359375 425.589844 C 731.0625 425.589844 735.296875 430.730469 737.414062 430.730469 C 739.835938 430.730469 740.742188 428.3125 741.042969 426.800781 L 746.1875 426.800781 L 746.1875 448.277344 L 741.042969 448.277344 C 736.507812 437.085938 731.0625 430.429688 718.359375 430.429688 C 712.007812 430.429688 704.75 433.152344 704.75 440.410156 C 704.75 458.257812 750.417969 447.066406 750.417969 474.894531 C 750.417969 490.925781 737.113281 498.789062 722.898438 498.789062 C 709.285156 498.789062 705.355469 493.042969 700.816406 493.042969 C 698.097656 493.042969 697.1875 495.765625 696.886719 497.882812 L 692.953125 497.882812 Z M 692.953125 498.789062 "/>
<path style=" stroke:none;fill-rule:nonzero;fill:rgb(3.529412%,18.823529%,29.803922%);fill-opacity:1;" d="M 775.824219 405.019531 L 775.824219 428.3125 L 796.695312 428.3125 L 796.695312 433.453125 L 775.824219 433.453125 L 775.824219 487.296875 C 775.824219 493.648438 779.757812 494.859375 783.6875 494.859375 C 789.738281 494.859375 794.578125 490.925781 794.578125 478.828125 L 794.578125 475.5 L 798.507812 475.5 L 798.507812 477.917969 C 798.507812 491.226562 794.578125 499.394531 779.757812 499.394531 C 769.472656 499.394531 761.308594 495.765625 761.308594 481.546875 L 761.308594 433.152344 L 750.417969 433.152344 L 750.417969 428.007812 C 764.332031 426.800781 766.148438 422.867188 770.078125 404.71875 C 770.078125 405.019531 775.824219 405.019531 775.824219 405.019531 Z M 775.824219 405.019531 "/>
<path style=" stroke:none;fill-rule:nonzero;fill:rgb(3.529412%,18.823529%,29.803922%);fill-opacity:1;" d="M 801.835938 498.183594 L 801.835938 493.042969 C 810.609375 493.042969 813.027344 491.53125 813.027344 486.691406 L 813.027344 439.804688 C 813.027344 434.964844 810.304688 433.453125 801.835938 433.453125 L 801.835938 428.3125 L 826.941406 427.40625 L 826.941406 486.992188 C 826.941406 491.832031 829.660156 493.34375 838.128906 493.34375 L 838.128906 498.488281 L 801.835938 498.488281 Z M 826.941406 405.019531 C 826.941406 409.859375 823.007812 413.492188 818.472656 413.492188 C 813.933594 413.492188 810.003906 409.859375 810.003906 405.019531 C 810.003906 400.179688 813.933594 396.550781 818.472656 396.550781 C 823.007812 396.550781 826.941406 400.179688 826.941406 405.019531 Z M 826.941406 405.019531 "/>
<path style=" stroke:none;fill-rule:nonzero;fill:rgb(3.529412%,18.823529%,29.803922%);fill-opacity:1;" d="M 859.300781 405.019531 L 859.300781 428.3125 L 880.171875 428.3125 L 880.171875 433.453125 L 859.300781 433.453125 L 859.300781 487.296875 C 859.300781 493.648438 863.234375 494.859375 867.164062 494.859375 C 873.214844 494.859375 878.054688 490.925781 878.054688 478.828125 L 878.054688 475.5 L 881.984375 475.5 L 881.984375 477.917969 C 881.984375 491.226562 878.054688 499.394531 863.234375 499.394531 C 852.949219 499.394531 844.785156 495.765625 844.785156 481.546875 L 844.785156 433.152344 L 833.894531 433.152344 L 833.894531 428.007812 C 847.808594 426.800781 849.625 422.867188 853.554688 404.71875 C 853.554688 405.019531 859.300781 405.019531 859.300781 405.019531 Z M 859.300781 405.019531 "/>
<path style=" stroke:none;fill-rule:nonzero;fill:rgb(3.529412%,18.823529%,29.803922%);fill-opacity:1;" d="M 939.753906 498.789062 L 939.753906 484.875 L 939.453125 484.875 C 934.308594 493.949219 927.050781 499.699219 916.765625 499.699219 C 903.460938 499.699219 894.6875 490.625 894.6875 472.777344 L 894.6875 439.503906 C 894.6875 434.664062 891.964844 433.152344 884.40625 433.152344 L 884.40625 428.007812 L 908.902344 428.007812 L 908.902344 479.429688 C 908.902344 487.902344 912.230469 493.949219 920.09375 493.949219 C 932.496094 493.949219 937.636719 482.757812 938.847656 472.777344 L 938.847656 439.503906 C 938.847656 434.664062 936.125 433.152344 927.351562 433.152344 L 927.351562 428.007812 L 953.0625 428.007812 L 953.0625 486.992188 C 953.0625 491.832031 955.785156 493.34375 963.34375 493.34375 L 963.34375 498.488281 Z M 939.753906 498.789062 "/>
<path style=" stroke:none;fill-rule:nonzero;fill:rgb(3.529412%,18.823529%,29.803922%);fill-opacity:1;" d="M 982.398438 405.019531 L 982.398438 428.3125 L 1003.269531 428.3125 L 1003.269531 433.453125 L 982.398438 433.453125 L 982.398438 487.296875 C 982.398438 493.648438 986.332031 494.859375 990.261719 494.859375 C 996.3125 494.859375 1001.152344 490.925781 1001.152344 478.828125 L 1001.152344 475.5 L 1005.082031 475.5 L 1005.082031 477.917969 C 1005.082031 491.226562 1001.152344 499.394531 986.332031 499.394531 C 976.046875 499.394531 967.882812 495.765625 967.882812 481.546875 L 967.882812 433.152344 L 956.992188 433.152344 L 956.992188 428.007812 C 970.90625 426.800781 972.722656 422.867188 976.652344 404.71875 C 976.953125 405.019531 982.398438 405.019531 982.398438 405.019531 Z M 982.398438 405.019531 "/>
<path style=" stroke:none;fill-rule:nonzero;fill:rgb(3.529412%,18.823529%,29.803922%);fill-opacity:1;" d="M 1024.742188 462.792969 C 1024.742188 483.0625 1033.511719 494.859375 1046.214844 494.859375 C 1056.195312 494.859375 1063.152344 488.808594 1068.597656 481.246094 L 1072.226562 483.667969 C 1065.574219 493.648438 1057.40625 500 1041.375 500 C 1022.925781 500 1008.710938 483.0625 1008.710938 463.097656 C 1008.710938 443.4375 1023.230469 426.195312 1041.375 426.195312 C 1058.917969 426.195312 1072.832031 438.597656 1072.832031 462.492188 Z M 1058.011719 457.652344 C 1058.011719 446.761719 1055.894531 431.640625 1041.074219 431.640625 C 1026.558594 431.640625 1024.742188 447.367188 1024.742188 457.652344 Z M 1058.011719 457.652344 "/>
<path style=" stroke:none;fill-rule:nonzero;fill:rgb(29.019608%,66.27451%,25.882353%);fill-opacity:1;" d="M 236.558594 2.117188 L 0.644531 237.75 L 299.164062 150.636719 Z M 236.558594 2.117188 "/>
<path style=" stroke:none;fill-rule:nonzero;fill:rgb(0%,58.039216%,26.666667%);fill-opacity:1;" d="M 364.796875 131.578125 L 336.367188 237.75 L 470.351562 237.75 L 236.558594 2.117188 L 299.164062 150.636719 Z M 364.796875 131.578125 "/>
<path style=" stroke:none;fill-rule:nonzero;fill:rgb(0%,58.039216%,26.666667%);fill-opacity:1;" d="M 299.164062 150.636719 L 0.644531 237.75 L 336.367188 237.75 Z M 299.164062 150.636719 "/>
<path style=" stroke:none;fill-rule:nonzero;fill:rgb(0%,52.941176%,25.490196%);fill-opacity:1;" d="M 299.164062 150.636719 L 336.367188 237.75 L 364.796875 131.578125 Z M 299.164062 150.636719 "/>
<path style=" stroke:none;fill-rule:nonzero;fill:rgb(28.627451%,65.882353%,25.882353%);fill-opacity:1;" d="M 273.152344 372.65625 L 234.441406 497.582031 L 470.351562 261.949219 L 334.550781 397.460938 Z M 273.152344 372.65625 "/>
<path style=" stroke:none;fill-rule:nonzero;fill:rgb(0%,58.039216%,26.666667%);fill-opacity:1;" d="M 0.644531 261.949219 L 234.441406 497.582031 L 273.152344 372.65625 Z M 0.644531 261.949219 "/>
<path style=" stroke:none;fill-rule:nonzero;fill:rgb(0%,58.039216%,26.666667%);fill-opacity:1;" d="M 273.152344 372.65625 L 334.550781 397.460938 L 470.351562 261.949219 L 307.332031 261.949219 Z M 273.152344 372.65625 "/>
<path style=" stroke:none;fill-rule:nonzero;fill:rgb(0%,52.941176%,25.490196%);fill-opacity:1;" d="M 307.332031 261.949219 L 0.644531 261.949219 L 273.152344 372.65625 Z M 307.332031 261.949219 "/>
</g>
</svg>
